<svg width="14" height="8" viewBox="0 0 14 8" fill="none" xmlns="http://www.w3.org/2000/svg">
<path d="M0.27668 0.277136C0.461133 0.0923788 0.679526 1.58845e-07 0.931858 1.55836e-07C1.18419 1.52827e-07 1.40234 0.0923788 1.5863 0.277136L6.99078 5.69052L12.4137 0.25866C12.5859 0.08622 12.8011 1.42973e-08 13.0593 1.12179e-08C13.3175 8.13846e-09 13.5389 0.0923786 13.7233 0.277136C13.9078 0.461893 14 0.680646 14 0.933394C14 1.18614 13.9078 1.40465 13.7233 1.58891L7.50725 7.79676C7.43347 7.87066 7.35354 7.92313 7.26746 7.95417C7.18138 7.98521 7.08915 8.00048 6.99078 7.99999C6.8924 7.99999 6.80018 7.98447 6.7141 7.95343C6.62802 7.92239 6.54809 7.87017 6.47431 7.79676L0.258235 1.57044C0.0860787 1.398 1.41358e-08 1.1854 1.11218e-08 0.932654C8.1078e-09 0.679907 0.092227 0.461401 0.27668 0.277136Z" fill="#3C244B"/>
</svg>
